<svg xmlns="http://www.w3.org/2000/svg" viewBox="0 0 550 550" fill="currentColor">
  <path d="M275 10L10 245c-5 4-5 12 0 16 2 2 5 3 8 3s6-1 8-3l249-227 249 227c2 2 5 3 8 3s6-1 8-3c5-4 5-12 0-16L275 10z"/>
  <path d="M65 245c-7 0-12 5-12 12v271c0 7 5 12 12 12h420c7 0 12-5 12-12V257c0-7-5-12-12-12s-12 5-12 12v259H77V257c0-7-5-12-12-12z"/>
  <path d="M275 285c-25 0-45 20-45 45 0 25 20 45 45 45s45-20 45-45c0-25-20-45-45-45zm0 70c-14 0-25-11-25-25s11-25 25-25 25 11 25 25-11 25-25 25z"/>
  <path d="M320 285c-12 0-23 5-31 13-8-8-19-13-31-13-25 0-45 20-45 45 0 12 5 23 13 31l63 63 63-63c8-8 13-19 13-31 0-25-20-45-45-45zm25 56l-43 43-43-43c-5-5-8-12-8-19 0-14 11-25 25-25 7 0 13 3 18 8l8 8 8-8c5-5 11-8 18-8 14 0 25 11 25 25 0 7-3 14-8 19z"/>
  <rect x="420" y="40" width="70" height="20" rx="10"/>
  <rect x="420" y="80" width="20" height="90" rx="10"/>
</svg>